# xmcd
#
# Track frame offsets: 
#        172
#        18760
#        35100
#        51025
#        66077
#        79917
#        92515
#        112450
#        133547
#        151110
#        169135
#        186142
#
# Disc length: 2818 seconds
#
# Revision: 3
# Processed by: cddbd v1.5.2PL0 Copyright (c) Steve Scherf et al.
# Submitted via: ExactAudioCopy v1.0b3
#
DISCID=9a0b000c
DTITLE=Квартал - Резиновые джунгли
DYEAR=1994
DGENRE=Jazz+Funk
TTITLE0=Сада-Якко
TTITLE1=Там на Таити
TTITLE2=На вершине холма
TTITLE3=Мойдодыр
TTITLE4=Остров белых птиц
TTITLE5=Не улетай лето
TTITLE6=Южный крест
TTITLE7=Небесный рикша
TTITLE8=Мокрый снег
TTITLE9=Шейк
TTITLE10=Моя любовь осталась в Амстердаме
TTITLE11=Первый блюз
EXTD=
EXTT0=
EXTT1=
EXTT2=
EXTT3=
EXTT4=
EXTT5=
EXTT6=
EXTT7=
EXTT8=
EXTT9=
EXTT10=
EXTT11=
PLAYORDER=
